<svg width="24px" height="24px" viewBox="0 0 24 24" fill="none" xmlns="http://www.w3.org/2000/svg">
  <path d="M7 14c-2.76 0-5 2.24-5 5v1h10v-1c0-2.76-2.24-5-5-5zM17 13c1.66 0 2.99 1.34 2.99 3L20 22h4v-6c0-1.66-1.34-3-3-3h-1c-1.66 0-3-1.34-3-3s1.34-3 3-3h1c2.76 0 5 2.24 5 5v6c0 .55-.45 1-1 1h-6c-.55 0-1-.45-1-1v-6c0-2.76-2.24-5-5-5S4 10.24 4 13v6c0 .55-.45 1-1 1H2c-.55 0-1-.45-1-1v-6c0-2.76 2.24-5 5-5h1c1.66 0 3 1.34 3 3s-1.34 3-3 3H7c-1.66 0-3 1.34-3 3v1h4v-1c0-1.66 1.34-3 3-3s3 1.34 3 3v1h4v-1c0-1.66 1.34-3 3-3h1c1.66 0 3 1.34 3 3v6h2v-6c0-2.76-2.24-5-5-5h-1c-1.66 0-3-1.34-3-3s1.34-3 3-3zM9 6c0-2.21 1.79-4 4-4s4 1.79 4 4-1.79 4-4 4-4-1.79-4-4z" fill="#637381"/>
</svg>
